<svg viewBox="0 0 52 52" fill="none" xmlns="http://www.w3.org/2000/svg">
    <rect width="52" height="52" rx="12" fill="white" fill-opacity="0.15"/>
    <rect x="2" y="2" width="48" height="48" rx="10" fill="url(#logo-gradient-fav)"/>
    <path d="M16 14h14a2 2 0 0 1 2 2v20a2 2 0 0 1-2 2H16a2 2 0 0 1-2-2V16a2 2 0 0 1 2-2z" fill="white" fill-opacity="0.9"/>
    <path d="M19 22h12M19 26h12M19 30h8" stroke="#1e3a5f" stroke-width="2" stroke-linecap="round"/>
    <circle cx="35" cy="35" r="8" fill="white"/>
    <path d="M35 31v8M31 35h8" stroke="#1e3a5f" stroke-width="2" stroke-linecap="round"/>
    <defs>
        <linearGradient id="logo-gradient-fav" x1="0" y1="0" x2="52" y2="52" gradientUnits="userSpaceOnUse">
            <stop stop-color="#3b82f6"/>
            <stop offset="1" stop-color="#1e40af"/>
        </linearGradient>
    </defs>
</svg>
